# xmcd CD database file generated by Grip 2.95
# 
# Track frame offsets:
#       150
#       13700
#       25030
#       38810
#       51780
#       63727
#       74817
#       86812
#       97217
#       107815
#       120837
#       134255
#       146282
#       159897
#       172075
#       185012
#       196912
#       208100
#       220135
#       230170
# 
# Disc length: 3216 seconds
# 
# Revision: 3
# Processed by: cddbd v1.4PL0 Copyright (c) Steve Scherf et al.
# Submitted via: Grip 2.95
# 
DISCID=2a0c8e14
DTITLE=Robert Johnson - The Masters Robert Johnson
DYEAR=1900
DGENRE=
TTITLE0=I Believe I'll Dust My Broom
TTITLE1=Love In Vain
TTITLE2=Sweet Home Chicago
TTITLE3=Ramblin' On My Mind
TTITLE4=I'm A Steady Rollin' Man
TTITLE5=From Four Till Late
TTITLE6=Hell Hound On My Trail
TTITLE7=HoneyMoon Blues
TTITLE8=Milkcow's Calf Blues
TTITLE9=32-20 Blues
TTITLE10=They're Red Hot
TTITLE11=Last Fair Deal Gone Down
TTITLE12=Terraplane Blues
TTITLE13=Cross Road Blues
TTITLE14=Preaching Blues [Up Jumped The Devil]
TTITLE15=When You Got A Good Friend
TTITLE16=Stones In My Passway
TTITLE17=Phonograph Blues
TTITLE18=Little Queen Of Spades
TTITLE19=Drunken Hearted Man
EXTD=
EXTT0=
EXTT1=
EXTT2=
EXTT3=
EXTT4=
EXTT5=
EXTT6=
EXTT7=
EXTT8=
EXTT9=
EXTT10=
EXTT11=
EXTT12=
EXTT13=
EXTT14=
EXTT15=
EXTT16=
EXTT17=
EXTT18=
EXTT19=
PLAYORDER=
